# xmcd CD database file
#
# Track frame offsets:
#	150
#	30231
#	70603
#	95932
#	120936
#	154836
#	194286
#
# Disc length: 2896 seconds
#
# Revision: 0
# Processed by: cddbd v1.5.2PL0 Copyright (c) Steve Scherf et al.
# Submitted via: CDex 1.51
#
DISCID=500b4e07
DTITLE=Herbie Mann - Milestones Of A Legend CD 1 - Great Ideas Of A Western Mann
DYEAR=1957
DGENRE=Jazz
TTITLE0=The Theme
TTITLE1=Lady Bird
TTITLE2=Get Out Of Town
TTITLE3=Is It True What They Say About Dixie?
TTITLE4=A Handful Of Stars
TTITLE5=A Stella Performance
TTITLE6=A Sad Thing
EXTD=YEAR: 1957
EXTT0=
EXTT1=
EXTT2=
EXTT3=
EXTT4=
EXTT5=
EXTT6=
PLAYORDER=
